HIERARCHY
ROOT Hips
{
     OFFSET 19.10990 98.23180 13.60400
     CHANNELS 6 Xposition Yposition Zposition Zrotation Xrotation Yrotation
     JOINT Spine
     {
          OFFSET 0.00000 11.89050 0.00000
          CHANNELS 3 Zrotation Xrotation Yrotation
          JOINT Spine1
          {
               OFFSET -0.00000 25.65740 0.12766
               CHANNELS 3 Zrotation Xrotation Yrotation
               JOINT HEad
               {
                    OFFSET -0.00000 8.73416 0.01134
                    CHANNELS 3 Zrotation Xrotation Yrotation
                    End Site
                    {
                         OFFSET -0.29000 12.77420 2.51395
                    }
               }
               JOINT LeftShoulder1
               {
                    OFFSET 8.99000 -0.36225 -0.22000
                    CHANNELS 3 Zrotation Xrotation Yrotation
                    JOINT LeftArm
                    {
                         OFFSET 10.28270 -0.00338 0.32212
                         CHANNELS 3 Zrotation Xrotation Yrotation
                         JOINT LeftForeArm
                         {
                              OFFSET 32.76690 0.09914 -1.42434
                              CHANNELS 3 Zrotation Xrotation Yrotation
                              JOINT LeftHand
                              {
                                   OFFSET 27.56430 0.08536 1.02216
                                   CHANNELS 3 Zrotation Xrotation Yrotation
                                   End Site
                                   {
                                        OFFSET 16.74430 -0.60000 1.50291
                                   }
                              }
                         }
                    }
               }
               JOINT RightShoulder
               {
                    OFFSET -8.99000 -0.36225 -0.22000
                    CHANNELS 3 Zrotation Xrotation Yrotation
                    JOINT RightArm
                    {
                         OFFSET -10.28270 -0.00338 0.32212
                         CHANNELS 3 Zrotation Xrotation Yrotation
                         JOINT RightForeArm
                         {
                              OFFSET -32.89710 0.09914 -1.42434
                              CHANNELS 3 Zrotation Xrotation Yrotation
                              JOINT RightHand
                              {
                                   OFFSET -27.49210 0.08536 1.02216
                                   CHANNELS 3 Zrotation Xrotation Yrotation
                                   End Site
                                   {
                                        OFFSET -16.63120 -0.60000 1.50291
                                   }
                              }
                         }
                    }
               }
          }
     }
     JOINT LeftUpLeg
     {
          OFFSET 8.94580 -8.66707 0.10165
          CHANNELS 3 Zrotation Xrotation Yrotation
          JOINT LeftLeg
          {
               OFFSET -0.00000 -44.42270 1.37270
               CHANNELS 3 Zrotation Xrotation Yrotation
               JOINT LeftFoot
               {
                    OFFSET -0.25355 -42.09240 -1.46059
                    CHANNELS 3 Zrotation Xrotation Yrotation
                    JOINT LeftToes
                    {
                         OFFSET -0.04000 -4.41509 8.49910
                         CHANNELS 3 Zrotation Xrotation Yrotation
                         End Site
                         {
                              OFFSET 0.08000 -0.04745 9.77979
                         }
                    }
               }
          }
     }
     JOINT RightUpLeg
     {
          OFFSET -8.94580 -8.66707 0.10165
          CHANNELS 3 Zrotation Xrotation Yrotation
          JOINT RightLeg
          {
               OFFSET 0.00000 -44.42270 1.37270
               CHANNELS 3 Zrotation Xrotation Yrotation
               JOINT RightFoot
               {
                    OFFSET 0.25355 -42.09240 -1.46059
                    CHANNELS 3 Zrotation Xrotation Yrotation
                    JOINT RightToes
                    {
                         OFFSET 0.04000 -4.41509 8.49910
                         CHANNELS 3 Zrotation Xrotation Yrotation
                         End Site
                         {
                              OFFSET -0.08000 -0.13745 9.77979
                         }
                    }
               }
          }
     }
}
MOTION
Frames: 10
Frame Time: 0.01667
19.10990 98.23180 13.60400 -0.18500 -3.56028 -48.67190 0.78016 4.56986 3.05536 0.91494 9.20549 6.08912 -9.28452 4.96526 37.16760 -0.00000 -0.00000 0.00000 -103.42100 -50.37240 -97.90000 -21.32330 34.68610 -82.36240 5.55594 9.67997 -0.87718 14.58010 1.08933 3.71321 62.18840 -15.94380 76.03820 19.44860 39.78470 90.56340 -5.55712 9.68432 0.87760 7.46650 -13.67310 4.82778 3.74041 13.76930 -17.62870 -12.95130 -6.11758 0.19719 -0.17616 4.62921 0.20159 -10.47950 4.80421 0.11545 2.02583 27.32600 -2.64400 6.34349 -20.81900 0.48990 -0.98151 -2.15311 -0.73687 
18.93510 98.09160 13.30640 -0.02906 -3.74424 -48.53590 0.84965 4.50672 3.12297 0.82989 9.09934 6.23479 -9.80738 5.47915 37.49520 -0.00000 -0.00000 0.00000 -104.32500 -50.55470 -98.68180 -21.25400 34.61050 -81.95180 5.55594 9.67997 -0.87718 14.14680 1.04773 3.59381 60.98470 -14.73350 76.26720 18.27910 37.87080 90.39220 -5.55712 9.68432 0.87760 7.47263 -13.86710 4.91349 3.67812 13.99650 -17.79680 -13.11080 -6.05882 0.20580 -0.12224 4.17993 0.04276 -10.35320 5.46898 0.18296 1.99751 26.18490 -3.42171 5.85427 -21.32370 0.45569 -1.11127 -2.51838 -1.10662 
18.76920 97.95070 12.96050 0.07691 -3.91287 -48.50550 0.94443 4.45444 3.21484 0.75261 9.01920 6.43072 -10.29550 5.84663 37.93730 -0.00000 -0.00000 0.00000 -105.30900 -50.76190 -99.50770 -21.19260 34.51740 -81.55000 5.55594 9.67997 -0.87718 13.79170 1.01360 3.49149 59.62100 -13.53330 76.52310 17.10860 35.82120 90.11680 -5.55712 9.68432 0.87760 7.55157 -14.00000 5.04094 3.62752 14.14520 -17.88550 -13.23940 -5.80299 0.23590 -0.03957 3.35949 -0.19665 -10.24440 5.97519 0.20572 2.07963 25.30470 -4.13808 5.22201 -21.78240 0.39682 -1.35090 -2.77174 -0.99525 
18.61430 97.81650 12.57250 0.13126 -4.07841 -48.55600 1.05419 4.42224 3.32643 0.68455 8.98086 6.66343 -10.76520 6.09327 38.44720 -0.00000 -0.00000 0.00000 -106.34500 -50.97260 -100.37200 -21.14380 34.40130 -81.14990 5.55594 9.67997 -0.87718 13.51050 0.98569 3.40210 58.27250 -12.47200 76.78920 16.05660 33.83880 89.73840 -5.55712 9.68432 0.87760 7.68042 -14.04740 5.16776 3.59367 14.18870 -17.89530 -13.39160 -5.43564 0.27947 0.04718 2.43091 -0.45543 -10.22070 6.35324 0.24079 2.36498 24.65440 -4.78329 4.51400 -22.11890 0.31844 -1.77298 -3.07936 -0.52667 
18.46890 97.69260 12.15270 0.15509 -4.23786 -48.63260 1.16519 4.40917 3.43430 0.63626 8.97942 6.88971 -11.22040 6.29142 38.99520 -0.00000 -0.00000 0.00000 -107.41200 -51.17980 -101.26700 -21.10320 34.27170 -80.74260 5.55594 9.67997 -0.87718 13.28990 0.96281 3.32384 56.98490 -11.56450 77.08630 15.12930 31.96970 89.28170 -5.55712 9.68432 0.87760 7.82818 -14.04300 5.26451 3.60036 14.15750 -17.88430 -13.69250 -5.17299 0.31545 0.10239 1.93003 -0.63654 -10.27640 6.61586 0.23593 2.78365 24.20520 -5.23774 3.75873 -22.29730 0.22498 -2.36646 -3.56299 0.04971 
18.33070 97.58380 11.70940 0.15916 -4.37026 -48.68270 1.28280 4.40716 3.51519 0.62562 8.99895 7.06091 -11.63970 6.49838 39.56520 -0.00000 -0.00000 0.00000 -108.49500 -51.40210 -102.18000 -21.06630 34.14620 -80.32750 5.55594 9.67997 -0.87718 13.14130 0.94775 3.27218 55.72540 -10.79090 77.43720 14.29410 30.19480 88.77160 -5.55712 9.68432 0.87760 7.99669 -14.02300 5.32978 3.65209 14.07020 -17.91740 -14.20670 -5.15305 0.32919 0.10901 2.19928 -0.68720 -10.33960 6.78084 0.10619 3.20118 23.91330 -5.41707 3.00408 -22.31750 0.12583 -3.07212 -4.23501 0.56412 
18.19410 97.49060 11.24780 0.13557 -4.45668 -48.68330 1.41471 4.41087 3.55894 0.67211 9.02934 7.15485 -12.03540 6.74617 40.12910 -0.00000 -0.00000 0.00000 -109.55500 -51.67110 -103.07700 -21.02700 34.03170 -79.92280 5.55594 9.67997 -0.87718 13.05690 0.94167 3.25803 54.50190 -10.13690 77.83600 13.53750 28.52630 88.23650 -5.55712 9.68432 0.87760 8.21386 -14.00300 5.39779 3.73145 13.93980 -18.04070 -14.86520 -5.37163 0.31660 0.06616 3.20494 -0.60059 -10.34460 6.87191 -0.14031 3.56560 23.74120 -5.41707 2.32237 -22.20610 0.03416 -3.87057 -5.05443 1.04698 
18.05050 97.41050 10.77150 0.07470 -4.48837 -48.63820 1.56541 4.41676 3.57113 0.78497 9.06382 7.18213 -12.45420 7.03664 40.63730 -0.00000 -0.00000 0.00000 -110.54600 -51.99490 -103.92200 -20.97690 33.92480 -79.54910 5.55594 9.67997 -0.87718 12.99090 0.94013 3.26712 53.38810 -9.59601 78.25810 12.86760 27.01280 87.71000 -5.55712 9.68432 0.87760 8.50724 -13.97700 5.49872 3.80545 13.76080 -18.24920 -15.51360 -5.70482 0.28630 -0.01742 4.62183 -0.39925 -10.24910 6.90169 -0.44614 3.87417 23.67970 -5.37730 1.76516 -22.03900 -0.04043 -4.69814 -5.90457 1.56706 
17.89270 97.34020 10.28730 -0.01500 -4.46383 -48.55060 1.73603 4.41453 3.56217 0.95155 9.08295 7.16508 -12.89990 7.34774 41.03330 -0.00000 -0.00000 0.00000 -111.42500 -52.34030 -104.68200 -20.91620 33.82860 -79.21020 5.55594 9.67997 -0.87718 12.90960 0.93778 3.27560 52.45660 -9.17783 78.67250 12.29750 25.70510 87.22590 -5.55712 9.68432 0.87760 8.88213 -13.94320 5.61576 3.82857 13.51570 -18.47960 -15.98870 -5.95110 0.26135 -0.11513 5.93784 -0.15383 -10.02590 6.86099 -0.78634 4.10174 23.75400 -5.32749 1.33139 -21.96380 -0.09700 -5.35065 -6.54749 2.05519 
17.72030 97.27430 9.80532 -0.11278 -4.38657 -48.41620 1.92376 4.38996 3.53827 1.14307 9.06006 7.11912 -13.30960 7.64973 41.29270 -0.00000 -0.00000 0.00000 -112.15500 -52.66460 -105.33100 -20.86340 33.75770 -78.89640 5.55594 9.67997 -0.87718 12.81580 0.93271 3.27039 51.72920 -8.89109 79.05820 11.82630 24.61630 86.80590 -5.55712 9.68432 0.87760 9.31725 -13.91730 5.70632 3.77658 13.19980 -18.66720 -16.19050 -5.91061 0.26997 -0.18079 6.60862 0.02086 -9.67262 6.73067 -1.12548 4.23750 23.99170 -5.25874 0.98346 -22.12980 -0.14145 -5.60153 -6.74292 2.36458 
